<svg>
<g id="SvgjsG1315" featurekey="UqkkrJ-0" transform="matrix(0.9368308963379232,0,0,0.9368308963379232,-3.091541913243568,9.908458086756433)" fill="#1088f8"><g xmlns="http://www.w3.org/2000/svg"><path d="M40,50c0-2.4,0.9-4.6,2.3-6.4c-3.5-1.7-7.3-4.7-11.7-9.4c-1.2-1.2-2.5-2.2-3.5-3.5L3.3,50l23.7,19.2c1-0.7,2.3-2.3,3.5-3.5   c4.5-4.6,8.5-7.5,12-9.1C41,54.9,40,52.5,40,50z"></path><path d="M34.2,30.6c4.6,4.5,7.4,8.5,9.1,12C45.1,41,47.4,40,50,40c2.4,0,4.6,0.9,6.4,2.3c1.7-3.5,4.7-7.3,9.4-11.7   c1.2-1.2,2.2-2.5,3.5-3.5L50,3.3L30.8,27.1C31.5,28,33.1,29.4,34.2,30.6z"></path><path d="M72.9,30.8c-1,1.2-2.2,2.4-3.5,3.5c-4,3.3-7.8,6.9-11.9,9.2c1.5,1.8,2.4,4,2.4,6.5c0,2.6-1,4.9-2.6,6.7   c4.2,2.1,8,5.8,12,9.1c1.3,1.1,2.5,2.2,3.5,3.5L96.7,50L72.9,30.8z"></path><path d="M65.8,69.4c-3.3-4-6.9-7.8-9.2-11.9c-1.8,1.5-4,2.4-6.5,2.4c-2.6,0-4.9-1-6.7-2.6c-2.1,4.2-5.7,8-9,12   c-1.1,1.3-2.2,2.5-3.5,3.5L50,96.7l19.2-23.7C68,71.9,66.8,70.8,65.8,69.4z"></path></g></g>
</svg>